P2
2 3
255
23 20 
0 1 
40 2 
